<svg id="svg" version="1.1" width="1000" height="242" xmlns="http://www.w3.org/2000/svg" xmlns:xlink="http://www.w3.org/1999/xlink" style="display: block;"><g id="svgg"><path id="path0" d="M180.946 83.800 C 180.947 86.000,181.014 86.849,181.095 85.687 C 181.176 84.524,181.176 82.724,181.093 81.687 C 181.011 80.649,180.945 81.600,180.946 83.800 " stroke="none" fill="#ee464f" fill-rule="evenodd"></path><path id="path1" d="M131.105 10.413 C 115.302 13.074,106.432 28.457,112.251 43.111 C 118.289 58.315,138.329 62.893,151.681 52.118 C 153.979 50.264,154.023 50.704,151.222 47.624 L 148.879 45.047 147.368 46.375 C 138.980 53.739,125.191 51.193,120.364 41.387 C 112.301 25.010,131.763 9.960,146.530 21.152 L 149.000 23.024 151.289 20.212 L 153.578 17.400 152.089 16.088 C 147.163 11.748,137.959 9.259,131.105 10.413 M226.400 10.726 C 219.646 12.491,216.044 16.450,215.682 22.507 C 215.242 29.879,218.591 33.222,230.000 36.800 C 238.807 39.561,240.788 40.900,241.080 44.287 C 241.750 52.063,227.486 52.660,218.111 45.250 L 216.135 43.688 214.426 47.134 L 212.717 50.579 214.258 51.883 C 225.241 61.171,245.234 59.508,249.173 48.980 C 252.522 40.029,248.324 34.415,235.153 30.228 C 228.486 28.109,225.827 26.640,224.977 24.607 C 221.967 17.403,233.133 15.111,244.140 20.674 C 245.207 21.213,246.131 21.597,246.193 21.527 C 246.615 21.054,249.200 15.516,249.200 15.084 C 249.200 14.078,243.859 11.690,239.200 10.613 C 235.749 9.815,229.679 9.869,226.400 10.726 M6.400 34.200 L 6.400 58.000 10.400 58.000 L 14.400 58.000 14.400 50.800 L 14.400 43.600 20.171 43.600 C 30.096 43.600,34.709 42.554,38.533 39.437 C 46.926 32.595,45.627 17.159,36.276 12.630 C 32.120 10.617,30.335 10.400,17.916 10.400 L 6.400 10.400 6.400 34.200 M52.800 34.200 L 52.800 58.000 56.800 58.000 L 60.800 58.000 60.800 34.200 L 60.800 10.400 56.800 10.400 L 52.800 10.400 52.800 34.200 M68.400 14.000 L 68.400 17.600 76.000 17.600 L 83.600 17.600 83.600 37.800 L 83.600 58.000 87.600 58.000 L 91.600 58.000 91.600 37.800 L 91.600 17.600 99.200 17.600 L 106.800 17.600 106.800 14.000 L 106.800 10.400 87.600 10.400 L 68.400 10.400 68.400 14.000 M162.400 34.200 L 162.400 58.000 166.400 58.000 L 170.400 58.000 170.400 48.000 L 170.400 38.000 183.200 38.000 L 196.000 38.000 196.000 48.000 L 196.000 58.000 200.000 58.000 L 204.000 58.000 204.000 34.200 L 204.000 10.400 200.000 10.400 L 196.000 10.400 196.000 20.600 L 196.000 30.800 183.200 30.800 L 170.400 30.800 170.400 20.600 L 170.400 10.400 166.400 10.400 L 162.400 10.400 162.400 34.200 M260.400 34.200 L 260.400 58.000 264.400 58.000 L 268.400 58.000 268.400 50.852 L 268.400 43.704 276.100 43.493 C 286.292 43.214,289.198 42.423,293.285 38.820 C 299.228 33.581,299.787 21.771,294.373 15.847 C 290.089 11.160,286.957 10.400,271.916 10.400 L 260.400 10.400 260.400 34.200 M358.000 14.400 L 358.000 18.000 365.600 18.000 L 373.200 18.000 373.200 38.200 L 373.200 58.400 377.200 58.400 L 381.200 58.400 381.200 38.200 L 381.200 18.000 388.600 18.000 L 396.000 18.000 396.000 14.400 L 396.000 10.800 377.000 10.800 L 358.000 10.800 358.000 14.400 M30.911 18.401 C 38.347 21.183,38.470 31.993,31.103 35.220 C 29.227 36.042,28.213 36.160,21.700 36.319 L 14.400 36.498 14.400 27.049 L 14.400 17.600 21.585 17.600 C 27.794 17.600,29.061 17.709,30.911 18.401 M285.800 18.668 C 292.448 22.217,292.028 32.187,285.103 35.220 C 283.227 36.042,282.213 36.160,275.700 36.319 L 268.400 36.498 268.400 27.013 L 268.400 17.528 276.300 17.671 C 283.441 17.800,284.354 17.896,285.800 18.668 M321.200 33.900 C 321.200 34.813,324.591 49.862,324.869 50.180 C 326.199 51.706,325.236 44.990,322.735 35.300 C 322.372 33.894,321.200 32.825,321.200 33.900 M337.860 33.903 C 337.247 34.895,334.366 49.726,334.718 50.078 C 335.305 50.665,337.843 41.202,338.912 34.441 C 339.012 33.804,338.183 33.380,337.860 33.903 M303.999 74.300 L 303.997 79.000 303.216 77.719 C 300.031 72.496,291.997 75.191,292.001 81.480 C 292.006 87.375,300.208 90.063,303.106 85.119 L 303.800 83.936 304.037 85.868 C 304.168 86.931,304.303 83.705,304.337 78.700 C 304.372 73.695,304.310 69.600,304.200 69.600 C 304.090 69.600,303.999 71.715,303.999 74.300 M287.017 71.172 C 286.721 71.651,287.474 72.125,288.007 71.796 C 288.454 71.519,288.160 70.800,287.600 70.800 C 287.406 70.800,287.144 70.968,287.017 71.172 M118.067 73.673 C 118.009 74.953,117.855 75.169,116.900 75.313 L 115.800 75.480 116.900 75.540 L 118.000 75.600 118.000 80.711 C 118.000 87.159,119.336 89.146,122.379 87.221 C 122.759 86.981,122.405 86.929,121.351 87.070 C 118.672 87.430,118.400 86.851,118.400 80.791 L 118.400 75.640 120.700 75.496 L 123.000 75.351 120.724 75.276 L 118.448 75.200 118.291 73.700 L 118.134 72.200 118.067 73.673 M134.000 73.772 C 134.000 74.877,133.825 75.178,133.100 75.318 C 132.235 75.484,132.234 75.493,133.053 75.546 C 133.867 75.598,133.913 75.831,134.067 80.773 C 134.202 85.120,134.347 86.079,134.976 86.773 C 135.969 87.871,139.200 87.848,139.200 86.743 C 139.200 86.530,138.871 86.548,138.426 86.786 C 135.564 88.318,134.800 87.024,134.800 80.646 L 134.800 75.640 137.100 75.496 L 139.400 75.351 137.100 75.276 L 134.800 75.200 134.800 73.800 C 134.800 73.030,134.620 72.400,134.400 72.400 C 134.180 72.400,134.000 73.017,134.000 73.772 M271.667 73.673 C 271.609 74.953,271.455 75.169,270.500 75.313 L 269.400 75.480 270.500 75.540 L 271.600 75.600 271.600 80.938 C 271.600 85.601,271.692 86.360,272.331 86.938 C 273.383 87.890,276.400 87.745,276.400 86.743 C 276.400 86.530,276.071 86.548,275.626 86.786 C 272.787 88.305,272.000 87.004,272.000 80.791 L 272.000 75.640 274.300 75.496 L 276.600 75.351 274.324 75.276 L 272.048 75.200 271.891 73.700 L 271.734 72.200 271.667 73.673 M66.519 75.984 C 61.668 78.942,64.069 87.200,69.781 87.200 C 71.834 87.200,74.816 85.432,74.791 84.230 C 74.786 83.994,74.471 84.186,74.091 84.657 C 70.704 88.857,64.406 86.520,64.401 81.062 C 64.397 75.175,72.377 73.251,74.612 78.600 C 75.398 80.481,75.309 87.585,74.479 89.206 C 73.089 91.922,69.504 92.736,66.500 91.018 C 65.565 90.484,64.800 90.225,64.800 90.443 C 64.800 92.017,70.623 92.871,72.704 91.602 C 75.315 90.010,75.604 88.990,75.538 81.600 C 75.506 77.942,75.369 75.802,75.231 76.800 C 75.025 78.289,74.928 78.448,74.670 77.720 C 73.849 75.401,69.125 74.395,66.519 75.984 M80.937 81.400 C 80.940 87.679,80.945 87.712,81.170 83.128 C 81.435 77.742,82.005 76.528,84.643 75.732 C 86.066 75.302,86.102 75.259,85.060 75.231 C 84.274 75.210,83.504 75.616,82.581 76.539 L 81.241 77.879 81.088 76.439 C 81.003 75.648,80.936 77.880,80.937 81.400 M90.359 76.108 C 85.438 79.396,87.660 87.600,93.472 87.600 C 95.306 87.600,97.705 86.801,98.180 86.032 C 98.333 85.785,97.717 85.969,96.812 86.441 C 92.829 88.517,88.034 85.828,88.002 81.500 C 88.001 81.335,90.610 81.200,93.800 81.200 C 100.341 81.200,100.272 81.241,98.808 78.218 C 97.341 75.185,93.264 74.167,90.359 76.108 M104.500 75.996 C 102.740 77.069,102.854 77.290,104.685 76.357 C 108.414 74.456,112.000 76.014,112.000 79.535 L 112.000 80.723 108.165 80.861 C 102.638 81.061,100.571 83.840,103.822 86.700 C 105.764 88.409,110.843 87.420,111.522 85.200 C 111.623 84.870,111.150 85.121,110.471 85.757 C 108.196 87.891,104.047 87.626,103.159 85.291 C 102.122 82.565,104.058 81.200,108.960 81.200 L 111.945 81.200 111.933 84.227 C 111.927 85.892,112.044 87.377,112.194 87.527 C 112.344 87.677,112.407 85.399,112.334 82.464 C 112.201 77.185,112.188 77.119,111.078 76.164 C 109.615 74.907,106.419 74.825,104.500 75.996 M144.025 75.931 C 140.184 77.991,140.226 84.396,144.096 86.826 C 145.713 87.841,149.224 87.737,150.912 86.625 C 152.474 85.596,151.980 85.380,150.345 86.377 C 146.769 88.557,141.607 86.150,141.601 82.300 L 141.600 81.200 147.358 81.200 L 153.116 81.200 152.820 79.891 C 151.865 75.652,147.885 73.861,144.025 75.931 M158.100 75.796 C 157.385 76.107,156.800 76.547,156.800 76.775 C 156.800 77.002,157.385 76.832,158.100 76.396 C 161.371 74.401,165.200 75.903,165.200 79.182 L 165.200 80.800 162.260 80.800 C 156.974 80.800,154.973 82.458,156.248 85.782 C 157.162 88.162,163.182 88.083,164.593 85.672 C 164.917 85.118,165.031 85.245,165.240 86.400 C 165.382 87.178,165.518 85.547,165.547 82.731 C 165.622 75.546,163.412 73.488,158.100 75.796 M170.925 81.400 C 170.930 87.662,170.935 87.703,171.180 83.308 C 171.510 77.404,172.737 75.621,176.481 75.606 C 180.045 75.592,180.799 76.808,181.192 83.200 L 181.475 87.800 181.538 83.660 C 181.630 77.515,182.882 75.600,186.806 75.600 C 190.285 75.600,190.929 76.678,191.224 83.000 L 191.449 87.800 191.524 83.260 C 191.633 76.745,190.699 75.192,186.681 75.206 C 184.528 75.213,183.253 75.872,182.112 77.565 C 181.505 78.466,181.200 78.688,181.200 78.228 C 181.200 74.620,172.983 74.179,171.730 77.720 C 171.472 78.448,171.375 78.289,171.169 76.800 C 171.032 75.810,170.922 77.880,170.925 81.400 M196.487 75.900 C 194.240 77.861,195.277 79.954,199.198 81.371 C 202.326 82.501,203.440 83.716,202.827 85.329 C 202.090 87.268,198.466 87.847,196.100 86.404 C 195.385 85.968,194.800 85.702,194.800 85.812 C 194.800 86.481,197.630 87.597,199.331 87.599 C 204.682 87.603,204.885 82.638,199.600 80.985 C 194.248 79.311,194.727 75.229,200.222 75.685 C 201.453 75.787,202.205 75.723,201.917 75.540 C 200.937 74.919,197.338 75.157,196.487 75.900 M220.119 75.960 C 218.450 77.009,217.461 78.956,217.453 81.208 C 217.433 86.760,224.528 89.323,227.933 84.995 L 228.800 83.892 228.800 85.852 C 228.800 90.980,223.561 93.792,219.543 90.821 C 218.880 90.331,218.252 90.015,218.148 90.119 C 217.504 90.763,221.178 92.200,223.468 92.200 C 228.216 92.200,229.229 90.252,229.130 81.313 C 229.092 77.841,228.992 75.752,228.909 76.671 L 228.757 78.341 227.436 76.900 C 225.741 75.051,222.276 74.605,220.119 75.960 M234.520 81.400 L 234.540 87.800 234.773 83.000 C 234.900 80.360,234.891 77.480,234.753 76.600 C 234.614 75.720,234.509 77.880,234.520 81.400 M236.431 76.236 C 235.754 76.805,235.204 77.480,235.209 77.736 C 235.214 77.991,235.536 77.787,235.924 77.282 C 236.313 76.777,237.344 76.110,238.215 75.800 C 239.594 75.309,239.661 75.233,238.731 75.218 C 238.143 75.208,237.108 75.666,236.431 76.236 M244.000 76.100 C 239.019 79.500,241.348 87.600,247.307 87.600 C 248.951 87.600,251.329 86.762,251.787 86.021 C 251.944 85.767,251.383 85.929,250.542 86.380 C 246.819 88.375,242.557 86.483,241.756 82.479 L 241.500 81.200 247.350 81.200 C 253.981 81.200,254.106 81.121,252.362 78.018 C 250.744 75.139,246.750 74.223,244.000 76.100 M258.100 75.996 C 256.314 77.084,256.458 77.385,258.294 76.401 C 262.052 74.387,265.600 76.032,265.600 79.787 C 265.600 80.693,265.479 80.727,261.765 80.861 C 256.280 81.060,254.275 83.536,257.217 86.479 C 259.151 88.412,264.387 87.550,265.130 85.176 C 265.243 84.814,264.954 84.916,264.355 85.450 C 261.292 88.177,256.400 87.526,256.400 84.392 C 256.400 82.093,258.143 81.200,262.632 81.200 L 265.545 81.200 265.533 84.227 C 265.527 85.892,265.644 87.377,265.794 87.527 C 265.944 87.677,266.007 85.399,265.934 82.464 C 265.801 77.185,265.788 77.119,264.678 76.164 C 263.215 74.907,260.019 74.825,258.100 75.996 M287.362 81.400 C 287.362 84.920,287.424 86.306,287.498 84.481 C 287.572 82.656,287.572 79.776,287.497 78.081 C 287.422 76.386,287.361 77.880,287.362 81.400 M311.322 75.982 C 306.426 78.967,308.117 86.861,313.789 87.500 C 315.713 87.717,318.070 87.080,318.857 86.131 C 319.230 85.682,318.926 85.745,317.795 86.351 C 314.008 88.381,309.854 86.560,309.007 82.500 L 308.736 81.200 314.568 81.200 C 321.160 81.200,321.219 81.164,319.638 78.084 C 318.200 75.282,314.149 74.259,311.322 75.982 M325.300 75.996 C 323.514 77.084,323.658 77.385,325.494 76.401 C 326.977 75.606,330.178 75.319,331.023 75.906 C 331.950 76.550,332.800 78.245,332.800 79.450 L 332.800 80.723 328.965 80.861 C 323.522 81.058,321.476 83.538,324.369 86.431 C 326.373 88.434,331.579 87.629,332.322 85.200 C 332.423 84.870,331.946 85.125,331.261 85.766 C 327.929 88.891,322.023 86.494,323.992 82.816 C 324.565 81.745,326.533 81.200,329.832 81.200 L 332.745 81.200 332.733 84.227 C 332.727 85.892,332.844 87.377,332.994 87.527 C 333.144 87.677,333.207 85.399,333.134 82.464 C 333.001 77.185,332.988 77.119,331.878 76.164 C 330.415 74.907,327.219 74.825,325.300 75.996 M338.020 75.903 C 335.773 77.723,337.132 80.233,341.030 81.462 C 342.222 81.838,343.580 82.552,344.047 83.050 C 346.609 85.777,341.285 88.590,337.700 86.404 C 336.985 85.968,336.400 85.702,336.400 85.812 C 336.400 86.481,339.230 87.597,340.931 87.599 C 345.867 87.602,346.598 82.543,341.853 81.215 C 337.816 80.085,336.264 77.781,338.489 76.223 C 339.499 75.515,342.468 75.394,343.626 76.014 C 344.063 76.248,344.400 76.268,344.400 76.061 C 344.400 75.014,339.274 74.888,338.020 75.903 M96.361 76.106 C 97.548 76.716,98.679 78.241,99.025 79.700 L 99.287 80.800 93.643 80.800 C 90.540 80.800,88.000 80.714,88.000 80.608 C 88.000 77.118,93.045 74.401,96.361 76.106 M150.253 76.493 C 151.622 77.430,152.400 78.709,152.400 80.019 C 152.400 80.755,152.090 80.800,147.000 80.800 C 141.052 80.800,140.978 80.762,142.219 78.362 C 143.608 75.676,147.679 74.729,150.253 76.493 M226.840 76.624 C 232.019 81.240,225.969 89.616,220.190 85.830 C 217.081 83.793,217.150 77.981,220.305 76.203 C 221.836 75.341,225.678 75.589,226.840 76.624 M249.961 76.106 C 251.148 76.716,252.279 78.241,252.625 79.700 L 252.887 80.800 247.243 80.800 C 244.140 80.800,241.600 80.677,241.600 80.526 C 241.600 77.116,246.690 74.425,249.961 76.106 M301.781 76.837 C 305.910 80.462,303.526 87.200,298.114 87.200 C 293.597 87.200,290.822 82.047,293.237 78.141 C 295.006 75.278,299.265 74.628,301.781 76.837 M316.927 75.972 C 318.063 76.404,319.428 78.177,319.817 79.724 L 320.087 80.800 314.416 80.800 L 308.746 80.800 309.014 79.900 C 310.071 76.348,313.473 74.659,316.927 75.972 M206.256 79.478 C 205.805 79.928,205.981 80.400,206.600 80.400 C 206.930 80.400,207.200 80.231,207.200 80.024 C 207.200 79.519,206.575 79.158,206.256 79.478 M165.200 82.711 C 165.200 86.364,160.355 88.653,157.454 86.371 C 154.330 83.913,156.704 81.287,162.100 81.232 L 165.200 81.200 165.200 82.711 M206.142 87.766 C 206.186 88.490,206.325 88.628,206.700 88.317 C 207.372 87.759,207.336 86.800,206.642 86.800 C 206.303 86.800,206.107 87.179,206.142 87.766 " stroke="none" fill="#ef4650" fill-rule="evenodd"></path><path id="path2" d="M372.986 38.200 C 372.986 49.420,373.037 54.068,373.100 48.528 C 373.162 42.988,373.162 33.808,373.100 28.128 C 373.037 22.448,372.986 26.980,372.986 38.200 " stroke="none" fill="#ef4550" fill-rule="evenodd"></path><path id="path3" d="M287.762 81.400 C 287.762 84.920,287.824 86.306,287.898 84.481 C 287.972 82.656,287.972 79.776,287.897 78.081 C 287.822 76.386,287.761 77.880,287.762 81.400 " stroke="none" fill="#ef454f" fill-rule="evenodd"></path><path id="path4" d="M326.800 6.781 C 295.670 11.210,295.598 56.183,326.714 60.572 L 328.428 60.814 327.804 59.607 C 327.460 58.943,326.924 58.400,326.612 58.400 C 325.428 58.400,324.801 56.710,324.760 53.411 C 324.705 48.978,324.521 48.556,321.805 46.652 C 309.738 38.191,314.510 19.750,329.083 18.528 C 343.503 17.320,351.427 35.667,340.548 45.074 C 335.228 49.674,335.600 49.073,335.600 53.071 C 335.600 56.709,335.031 58.400,333.807 58.400 C 333.505 58.400,332.984 58.950,332.649 59.622 L 332.040 60.843 333.920 60.569 C 352.665 57.838,362.964 37.821,354.279 21.000 C 349.265 11.289,337.586 5.246,326.800 6.781 M322.800 35.186 C 322.800 37.831,326.981 39.306,329.048 37.391 L 330.137 36.381 331.190 37.391 C 332.664 38.802,334.709 38.764,336.080 37.300 C 337.254 36.046,337.894 34.400,337.207 34.400 C 336.474 34.400,334.400 35.590,334.400 36.010 C 334.400 36.694,333.002 36.428,332.302 35.611 C 331.931 35.177,331.169 34.707,330.610 34.567 C 329.659 34.328,329.203 34.530,326.986 36.171 C 326.645 36.424,326.077 36.199,325.212 35.471 C 323.706 34.204,322.800 34.097,322.800 35.186 " stroke="none" fill="#fae815" fill-rule="evenodd"></path></g></svg>